<?xml version="1.0" encoding="UTF-8"?>
<svg width="40px" height="40px" viewBox="0 0 40 40" version="1.1" xmlns="http://www.w3.org/2000/svg" xmlns:xlink="http://www.w3.org/1999/xlink">
    <!-- Generator: Sketch 54.1 (76490) - https://sketchapp.com -->
    <title>LOGO/BNB</title>
    <desc>Created with Sketch.</desc>
    <g id="LOGO/BNB" stroke="none" stroke-width="1" fill="none" fill-rule="evenodd">
        <path d="M9.41176471,20 L4.70384782,24.8 L0,20 L4.70384782,15.2 L9.41176471,20 Z M20,9.04374563 L27.6769988,16.8 L32.1568627,12.2761705 L20,0 L7.84313725,12.2761705 L12.3230012,16.8 L20,9.04374563 Z M35.2961539,15.2 L30.5882353,20 L35.2961539,24.8 L40,20 L35.2961539,15.2 Z M20,30.9541473 L12.3230012,23.2 L7.84313725,27.7209692 L20,40 L32.1568627,27.7209692 L27.6769988,23.2 L20,30.9541473 Z M19.6078431,24.8 L24.3137255,20 L19.6078431,15.2 L14.9019608,20 L19.6078431,24.8 Z" id="Shape" fill="#F0B90B" fill-rule="nonzero"></path>
    </g>
</svg>