<?xml version="1.0" encoding="UTF-8"?>
<svg width="40px" height="40px" viewBox="0 0 40 40" version="1.1" xmlns="http://www.w3.org/2000/svg" xmlns:xlink="http://www.w3.org/1999/xlink">
    <!-- Generator: Sketch 54.1 (76490) - https://sketchapp.com -->
    <title>LOGO/BEP2</title>
    <desc>Created with Sketch.</desc>
    <g id="LOGO/BEP2" stroke="none" stroke-width="1" fill="none" fill-rule="evenodd">
        <g id="Group" transform="translate(20.000000, 20.000000) scale(-1, 1) translate(-20.000000, -20.000000) translate(3.000000, 0.000000)" fill="#F0B90B">
            <polygon id="Path" points="4.04494644 20.2107558 4.05775501 27.7896406 11 31.5772992 11 36 0 30.0170454 0 18 4.04494644 20.211945"></polygon>
            <polygon id="Path" points="3.49944594 12.4981843 3.49944594 17 0 14.7472764 0 10.2466712 3.49944594 8 7 10.2466712"></polygon>
            <polygon id="Path" points="13 8.99784717 16.5027703 7 20 8.99784717 16.4994459 11"></polygon>
            <polygon id="Path" points="6 25.9992829 6 22 10 23.9996414 10 28 6 25.9992829"></polygon>
            <polygon id="Path" points="13 34 16.4994459 36.0007171 20 34 20 37.9992829 16.4994459 40 13 37.9992829"></polygon>
            <polygon id="Path" points="27 10.2466712 30.4994459 8 34 10.2466712 34 14.7496974 30.4994459 17 30.4994459 12.4969738 27 10.2478817"></polygon>
            <polygon id="Path" points="29.9470986 27.7913721 29.9522256 20.2117989 34 18 34 30.0174407 23 36 23 31.5775913 29.9470986 27.790183"></polygon>
            <polygon id="Path" points="27 25.9992829 23 28 23 23.9985658 27 22 27 26.0003586"></polygon>
            <polygon id="Path" points="26.9926556 14.2960263 27 18.8868446 20.3655864 22.8172467 20.3655864 30.7052081 16.5 33 12.6331896 30.7039737 12.6331896 22.8172467 6 18.8868446 6 14.2947919 9.86681047 12 16.4889835 15.9353398 23.1282933 12 26.9938797 14.2960263"></polygon>
            <polygon id="Path" points="6.00244881 5.84682208 16.4920413 0 27 5.84682208 23.1332867 8 16.4920413 4.30751412 9.86793772 8 6 5.84566381"></polygon>
        </g>
    </g>
</svg>