<?xml version="1.0" encoding="UTF-8"?>
<svg width="242px" height="32px" viewBox="0 0 242 32" version="1.1" xmlns="http://www.w3.org/2000/svg" xmlns:xlink="http://www.w3.org/1999/xlink">
    <!-- Generator: Sketch 54.1 (76490) - https://sketchapp.com -->
    <title>BEPTOOLS</title>
    <desc>Created with Sketch.</desc>
    <g id="BEPTOOLS" stroke="none" stroke-width="1" fill="none" fill-rule="evenodd">
        <g id="TOOLS" transform="translate(11.000000, 0.000000)">
            <path d="M105,3 L105,5.97821645 L97.1098992,5.97821645 L97.1098992,28 L93.8901008,28 L93.8901008,5.97821645 L86,5.97821645 L86,3 L105,3 Z M117.403632,3 C121.568922,3 124.65269,4.39603416 126.655028,7.18814428 C128.218351,9.36599021 129,12.1524744 129,15.5476803 C129,19.2220973 128.105921,22.2766201 126.317737,24.7113402 C124.21903,27.5704607 121.226276,29 117.339385,29 C113.709479,29 110.855923,27.749153 108.778631,25.2474227 C106.926201,22.8350392 106,19.7861008 106,16.1005154 C106,12.77232 106.792357,9.92441042 108.377095,7.55670099 C110.411556,4.51888512 113.420371,3 117.403632,3 Z M118.203523,26 C120.948481,26 122.93411,24.9501634 124.16047,22.8504594 C125.386829,20.7507554 126,18.33641 126,15.6073516 C126,12.7223469 125.292897,10.3998973 123.87867,8.63993308 C122.464442,6.87996889 120.530997,6 118.078278,6 C115.698618,6 113.757346,6.87161476 112.254403,8.61487042 C110.75146,10.3581261 110,12.928415 110,16.3258144 C110,19.0437338 110.644482,21.3355512 111.933464,23.2013363 C113.222446,25.0671215 115.312445,26 118.203523,26 Z M143.403632,3 C147.568922,3 150.65269,4.39603416 152.655028,7.18814428 C154.218351,9.36599021 155,12.1524744 155,15.5476803 C155,19.2220973 154.105921,22.2766201 152.317737,24.7113402 C150.21903,27.5704607 147.226276,29 143.339386,29 C139.709479,29 136.855923,27.749153 134.778631,25.2474227 C132.926201,22.8350392 132,19.7861008 132,16.1005154 C132,12.77232 132.792357,9.92441042 134.377095,7.55670099 C136.411556,4.51888512 139.420371,3 143.403632,3 Z M144.203523,26 C146.948481,26 148.93411,24.9501634 150.16047,22.8504594 C151.386829,20.7507554 152,18.33641 152,15.6073516 C152,12.7223469 151.292897,10.3998973 149.87867,8.63993308 C148.464442,6.87996889 146.530997,6 144.078278,6 C141.698618,6 139.757346,6.87161476 138.254403,8.61487042 C136.751461,10.3581261 136,12.928415 136,16.3258144 C136,19.0437338 136.644482,21.3355512 137.933464,23.2013363 C139.222446,25.0671215 141.312445,26 144.203523,26 Z M159,3 L162.16543,3 L162.16543,25.0217835 L174,25.0217835 L174,28 L159,28 L159,3 Z M178.034936,20.3221429 C178.110651,21.7209022 178.429733,22.8566769 178.992191,23.7295027 C180.063023,25.3632531 181.950473,26.1801159 184.654597,26.1801159 C185.866043,26.1801159 186.969309,26.0010775 187.964426,25.6429952 C189.889762,24.9492112 190.852416,23.7071317 190.852416,21.9167201 C190.852416,20.5739121 190.446804,19.6171751 189.635567,19.0464814 C188.813513,18.4869779 187.52637,18.0002171 185.774098,17.5861845 L182.545391,16.8308585 C180.436175,16.3384954 178.943521,15.7957851 178.067385,15.2027113 C176.553076,14.1732248 175.795933,12.6346131 175.795933,10.5868301 C175.795933,8.37119612 176.536851,6.55283682 178.018711,5.13169783 C179.500571,3.71055884 181.598938,3 184.313878,3 C186.812489,3 188.935193,3.62383706 190.682057,4.87152996 C192.428921,6.11922292 193.302339,8.11382313 193.302339,10.8553905 L190.268328,10.8553905 C190.106081,9.53496212 189.759958,8.52227592 189.22995,7.81730142 C188.245649,6.5304433 186.574526,5.88702383 184.216531,5.88702383 C182.312828,5.88702383 180.944562,6.30105023 180.111692,7.12911548 C179.278822,7.95718079 178.862393,8.91951239 178.862393,10.0161394 C178.862393,11.224667 179.349128,12.1086694 180.322613,12.6681729 C180.960785,13.0262552 182.404766,13.4738513 184.654597,14.0109747 L187.996876,14.7998708 C189.608534,15.1803332 190.852412,15.7006637 191.728548,16.3608778 C193.242857,17.5134552 194,19.1863457 194,21.3795994 C194,24.1099767 193.04005,26.0626148 191.120123,27.2375723 C189.200196,28.4125298 186.969327,29 184.427451,29 C181.463732,29 179.143629,28.2167065 177.467073,26.6500967 C175.790516,25.0946769 174.968475,22.9853803 175.000924,20.3221429 L178.034936,20.3221429 Z" fill="#4A4A4A" fill-rule="nonzero"></path>
            <g id="Group-3" stroke-width="1" fill-rule="evenodd" transform="translate(5.000000, 3.000000)" fill="#F0B90B">
                <path d="M46,25.9825834 L27,26 L27,0 L45.8227772,0 L45.8227772,5.09433963 L32.453889,5.09433963 L32.453889,10.3671989 L44.2177674,10.3671989 L44.2177674,15.4615384 L32.453889,15.4615384 L32.453889,20.8867924 L46,20.8867924 L46,25.9811321 L46,25.9825834 Z M22,18.8721978 C22,23.6428594 18.1544474,26.0187564 12.3090296,25.9998885 L0,26 L0,0 L12.0140162,0 C17.3020216,0 20.5575472,2.6356926 20.5575472,6.72130647 L20.5575472,6.79532645 C20.5575472,9.73290455 18.9994609,11.3671501 17.1552561,12.4048815 C20.1557951,13.5587227 22,15.3047239 22,18.7967264 L22,18.8721978 L22,18.8721978 Z M58.8029326,14.932269 C58.8029326,18.1127237 58.8029326,21.7876686 58.8029326,25.9571037 L53,26 L53,0 L64.6237327,0 C69.1108354,0 73,3.40630544 73,7.91646509 C73,12.4266247 69.0835676,14.932269 64.6775812,14.932269 L58.8029326,14.932269 Z M15,7.4893899 L15,7.44694961 C15,5.88461538 13.7177496,5 11.4057052,5 L6,5 L6,10 L11.051981,10 C13.4695721,10 15,9.25464192 15,7.4893899 L15,7.4893899 Z M17,18.0221769 L17,17.9732348 C17,16.1333163 15.6801208,15 12.7035969,15 L6,15 L6,21 L12.8893465,21 C15.4535969,21 16.9984899,20.0578639 16.9984898,18.0221769 L17,18.0221769 Z M68,7.4893899 L68,7.44694961 C68,5.88461538 66.7177496,5 64.4057052,5 L59,5 L59,10 L64.051981,10 C66.4695721,10 68,9.25464192 68,7.4893899 L68,7.4893899 Z" id="Shape" fill-rule="nonzero"></path>
            </g>
        </g>
    </g>
</svg>