<?xml version="1.0" encoding="UTF-8"?>
<svg width="149px" height="39px" viewBox="0 0 149 39" version="1.1" xmlns="http://www.w3.org/2000/svg" xmlns:xlink="http://www.w3.org/1999/xlink">
    <!-- Generator: Sketch 54.1 (76490) - https://sketchapp.com -->
    <title>Chain-Horizontal</title>
    <desc>Created with Sketch.</desc>
    <g id="Symbols" stroke="none" stroke-width="1" fill="none" fill-rule="evenodd">
        <g id="Header" transform="translate(-15.000000, -19.000000)">
            <g id="Chain-Horizontal">
                <g id="Group">
                    <rect id="Rectangle" x="0" y="0" width="183" height="77"></rect>
                    <path d="M69.19535,38.5702778 L62.11325,38.5702778 L62.11325,23.6561111 L69.02455,23.6561111 C72.07455,23.6561111 73.9381,25.1838889 73.9381,27.5122222 L73.9381,27.555 C73.9381,29.2386111 73.04445,30.1736111 71.98,30.7725 C73.70325,31.4325 74.7677,32.4316667 74.7677,34.4391667 L74.7677,34.4819444 C74.7677,37.2044444 72.5534,38.5702778 69.19535,38.5702778 Z M70.68375,28.0652778 C70.68375,27.0844444 69.9182,26.5375 68.54875,26.5375 L65.31575,26.5375 L65.31575,29.6847222 L68.32,29.6847222 C69.7657,29.6847222 70.6807,29.2172222 70.6807,28.1080556 L70.68375,28.0652778 Z M71.51335,34.0297222 C71.51335,33.0305556 70.76915,32.4102778 69.0886,32.4102778 L65.30355,32.4102778 L65.30355,35.6919444 L69.19535,35.6919444 C70.64105,35.6919444 71.51335,35.1816667 71.51335,34.0725 L71.51335,34.0297222 Z M78.3606,38.5702778 L78.3606,23.6561111 L81.6363,23.6561111 L81.6363,38.5702778 L78.3606,38.5702778 Z M96.45625,38.5702778 L89.24605,29.0980556 L89.24605,38.5702778 L86.01,38.5702778 L86.01,23.6561111 L89.0295,23.6561111 L96.00485,32.8380556 L96.00485,23.6713889 L99.23785,23.6713889 L99.23785,38.5855556 L96.45625,38.5702778 Z M113.9602,38.5702778 L112.5999,35.2091667 L106.3047,35.2091667 L104.94135,38.5702778 L101.60465,38.5702778 L107.98525,23.5491667 L111.02,23.5491667 L117.4006,38.5702778 L113.9602,38.5702778 Z M109.4523,27.5 L107.47285,32.3369444 L111.43785,32.3369444 L109.4523,27.5 Z M130.2106,38.5794444 L123.0004,29.1072222 L123.0004,38.5794444 L119.7674,38.5794444 L119.7674,23.6561111 L122.7869,23.6561111 L129.76225,32.8380556 L129.76225,23.6713889 L132.99525,23.6713889 L132.99525,38.5855556 L130.2106,38.5794444 Z M143.8014,38.8330556 C141.764469,38.8640905 139.802298,38.0650236 138.364681,36.6190278 C136.927065,35.1730317 136.13729,33.2041123 136.1764,31.1636111 L136.1764,31.1208333 C136.1764,26.8797222 139.3667,23.4086111 143.93865,23.4086111 C146.74465,23.4086111 148.4252,24.3466667 149.8099,25.7094444 L147.71455,28.1111111 C146.56775,27.0661111 145.39655,26.4275 143.90815,26.4275 C141.398,26.4275 139.58935,28.5144444 139.58935,31.0719444 L139.58935,31.1147222 C139.58935,33.6722222 141.3553,35.8019444 143.90815,35.8019444 C145.61005,35.8019444 146.65315,35.1205556 147.8213,34.0541667 L149.90445,36.1655556 C148.37335,37.8033333 146.6745,38.8238889 143.8014,38.8238889 L143.8014,38.8330556 Z M152.54575,38.5794444 L152.54575,23.6561111 L163.785,23.6561111 L163.785,26.5833333 L155.79705,26.5833333 L155.79705,29.6083333 L162.81205,29.6083333 L162.81205,32.5263889 L155.79705,32.5263889 L155.79705,35.6583333 L163.87955,35.6583333 L163.87955,38.5794444 L152.54575,38.5794444 Z M108.1774,47.3275 L62.1224,47.3275 L62.1224,49.0844444 L108.1774,49.0844444 L108.1774,47.3275 Z M19.3187,34.2222222 L14.97855,38.5702778 L19.3187,42.9183333 L23.6619,38.5702778 L19.3187,34.2222222 Z M34.2027,28.0102778 L41.6447,35.4627778 L45.98485,31.1147222 L34.2027,19.3111111 L22.42055,31.1147222 L26.7607,35.4627778 L34.2027,28.0102778 Z M49.08365,34.2222222 L44.7435,38.5702778 L49.08365,42.9183333 L53.42685,38.5702778 L49.08365,34.2222222 Z M34.2027,49.1302778 L26.7607,41.6747222 L22.42055,46.0227778 L34.2027,57.8263889 L45.98485,46.0227778 L41.6447,41.6747222 L34.2027,49.1302778 Z M34.2027,42.9183333 L38.54285,38.5702778 L34.2027,34.2222222 L29.86255,38.5702778 L34.2027,42.9183333 Z" id="Shape" fill="#F0B90B" fill-rule="nonzero"></path>
                </g>
                <path d="M122.793767,42.3092783 L122.793767,43.6623711 L119.141993,43.6623711 L119.141993,53.6675257 L117.651774,53.6675257 L117.651774,43.6623711 L114,43.6623711 L114,42.3092783 L122.793767,42.3092783 Z M128.549051,42 C130.462246,42 131.878678,42.6443235 132.798388,43.9329897 C133.516451,44.9381493 133.875477,46.2242189 133.875477,47.7912371 C133.875477,49.4871218 133.46481,50.8969016 132.643464,52.0206186 C131.679489,53.3402126 130.304862,54 128.519542,54 C126.852259,54 125.541568,53.422686 124.587429,52.2680413 C123.736574,51.1546335 123.311153,49.7474311 123.311153,48.0463917 C123.311153,46.5103016 123.675097,45.1958817 124.402996,44.1030928 C125.337462,42.7010239 126.719466,42 128.549051,42 Z M128.696597,52.6237114 C129.990094,52.6237114 130.925775,52.1378914 131.503668,51.1662371 C132.081561,50.1945828 132.370503,49.0773258 132.370503,47.8144329 C132.370503,46.4793747 132.037298,45.4046432 131.370877,44.5902062 C130.704455,43.7757691 129.793365,43.3685567 128.637579,43.3685567 C127.51622,43.3685567 126.601442,43.7719032 125.893215,44.5786082 C125.184989,45.3853133 124.830881,46.5747344 124.830881,48.1469072 C124.830881,49.4046454 125.134578,50.4652016 125.74198,51.3286081 C126.349383,52.1920146 127.334245,52.6237114 128.696597,52.6237114 Z M140.302097,42 C142.215292,42 143.631724,42.6443235 144.551434,43.9329897 C145.269497,44.9381493 145.628523,46.2242189 145.628523,47.7912371 C145.628523,49.4871218 145.217856,50.8969016 144.39651,52.0206186 C143.432536,53.3402126 142.057909,54 140.272588,54 C138.605305,54 137.294614,53.422686 136.340475,52.2680413 C135.48962,51.1546335 135.064199,49.7474311 135.064199,48.0463917 C135.064199,46.5103016 135.428143,45.1958817 136.156043,44.1030928 C137.090508,42.7010239 138.472512,42 140.302097,42 Z M140.449644,52.6237114 C141.74314,52.6237114 142.678821,52.1378914 143.256714,51.1662371 C143.834607,50.1945828 144.12355,49.0773258 144.12355,47.8144329 C144.12355,46.4793747 143.790344,45.4046432 143.123923,44.5902062 C142.457501,43.7757691 141.546411,43.3685567 140.390625,43.3685567 C139.269266,43.3685567 138.354488,43.7719032 137.646261,44.5786082 C136.938035,45.3853133 136.583927,46.5747344 136.583927,48.1469072 C136.583927,49.4046454 136.887624,50.4652016 137.495026,51.3286081 C138.102429,52.1920146 139.087291,52.6237114 140.449644,52.6237114 Z M147.377921,42.3092783 L148.846009,42.3092783 L148.846009,52.3144329 L154.334736,52.3144329 L154.334736,53.6675257 L147.377921,53.6675257 L147.377921,42.3092783 Z M156.740716,50.0025771 C156.775143,50.6469104 156.920229,51.1701009 157.175978,51.5721648 C157.662883,52.3247459 158.521103,52.7010308 159.750663,52.7010308 C160.301505,52.7010308 160.803158,52.6185574 161.255636,52.4536081 C162.131083,52.1340191 162.5688,51.5618597 162.5688,50.7371132 C162.5688,50.1185537 162.384368,49.6778363 162.0155,49.4149484 C161.641714,49.1572152 161.056453,48.9329906 160.259698,48.742268 L158.791611,48.3943299 C157.832555,48.1675246 157.153848,47.9175271 156.75547,47.6443298 C156.066917,47.1701007 155.722645,46.4613449 155.722645,45.5180412 C155.722645,44.4974176 156.05954,43.6597971 156.733338,43.0051546 C157.407137,42.3505122 158.361261,42.0231959 159.595739,42.0231959 C160.731852,42.0231959 161.697042,42.3105641 162.491338,42.8853093 C163.285633,43.4600544 163.682775,44.3788596 163.682775,45.6417525 L162.303216,45.6417525 C162.229442,45.0335021 162.072061,44.5670119 161.831067,44.242268 C161.383508,43.6494816 160.623651,43.3530928 159.551475,43.3530928 C158.685865,43.3530928 158.063717,43.5438125 157.685013,43.9252577 C157.306308,44.3067029 157.116959,44.7499974 157.116959,45.2551546 C157.116959,45.8118584 157.338276,46.2190708 157.780918,46.4768041 C158.071094,46.6417534 158.727669,46.8479369 159.750663,47.0953608 L161.270391,47.4587628 C162.003209,47.6340214 162.568798,47.8737098 162.967175,48.177835 C163.655728,48.7087655 164,49.4793763 164,50.4896906 C164,51.7474288 163.563513,52.6469044 162.690525,53.1881442 C161.817538,53.729384 160.803166,54 159.64738,54 C158.299783,54 157.244836,53.6391787 156.482509,52.9175257 C155.720182,52.2010273 155.346402,51.2293876 155.361156,50.0025771 L156.740716,50.0025771 Z" id="TOOLS" fill="#F0B90B" fill-rule="nonzero"></path>
            </g>
        </g>
    </g>
</svg>