<?xml version="1.0" encoding="UTF-8"?>
<svg width="101px" height="85px" viewBox="0 0 101 85" version="1.1" xmlns="http://www.w3.org/2000/svg" xmlns:xlink="http://www.w3.org/1999/xlink">
    <!-- Generator: Sketch 54.1 (76490) - https://sketchapp.com -->
    <title>Mask</title>
    <desc>Created with Sketch.</desc>
    <defs>
        <path d="M17.6396775,23.276974 L17.6396775,34.6280371 L8,28.9479273 L8,17.5999166 L17.6396775,11.9350677 L27.2824072,17.5999166 L17.6396775,23.276974 Z M60.1233163,9.1192575 L50.483639,3.41079227 L40.8409091,9.1192575 L40.8409091,-2.29153477 L50.483639,-8 L60.1233163,-2.29153477 L60.1233163,9.1192575 Z M60.1233163,9.1192575 L50.483639,3.41079227 L40.8409091,9.1192575 L40.8409091,-2.29153477 L50.483639,-8 L60.1233163,-2.29153477 L60.1233163,9.1192575 Z M60.2020202,28.5041927 L50.5429293,34.3674479 L40.8838383,28.5041927 L40.8409091,17.2526493 L50.483639,11.544184 L60.1233163,17.2526493 L60.2020202,28.5041927 Z M60.2020202,87.1367448 L50.5429293,93 L40.8838383,87.1367448 L40.8409091,75.8852014 L50.483639,70.1767362 L60.1233163,75.8852014 L60.2020202,87.1367448 Z M73.7175927,17.5999166 L83.35727,11.9350677 L93,17.5999166 L93,28.9540318 L83.35727,34.6280371 L83.35727,23.273922 L73.7175927,17.6029686 L73.7175927,17.5999166 Z M76.4722221,38.5936502 L60.0617018,48.3549007 L60.0617018,67.944847 L50.5429293,62.3156311 L40.9352707,67.9417813 L40.9352707,48.3549007 L24.5277779,38.5936502 L24.5277779,27.1891744 L34.0925076,21.490002 L50.4727502,31.2635152 L66.8953815,21.490002 L76.4570833,27.1922401 L76.4722221,38.5936502 Z" id="path-1"></path>
    </defs>
    <g id="Page-1" stroke="none" stroke-width="1" fill="none" fill-rule="evenodd">
        <mask id="mask-2" fill="white">
            <use xlink:href="#path-1"></use>
        </mask>
        <use id="Mask" fill="#848E9C" fill-rule="nonzero" transform="translate(50.500000, 42.500000) rotate(90.000000) translate(-50.500000, -42.500000) " xlink:href="#path-1"></use>
    </g>
</svg>