<?xml version="1.0" encoding="UTF-8"?>
<svg width="101px" height="85px" viewBox="0 0 101 85" version="1.1" xmlns="http://www.w3.org/2000/svg" xmlns:xlink="http://www.w3.org/1999/xlink">
    <!-- Generator: Sketch 54.1 (76490) - https://sketchapp.com -->
    <title>Multi-sender-active</title>
    <desc>Created with Sketch.</desc>
    <g id="Page-1" stroke="none" stroke-width="1" fill="none" fill-rule="evenodd">
        <g id="Multi-sender-active" fill="#F0B90B" fill-rule="nonzero">
            <g id="Mask" transform="translate(50.500000, 42.500000) rotate(90.000000) translate(-50.500000, -42.500000) translate(8.000000, -8.000000)">
                <path d="M9.6396775,31.276974 L9.6396775,42.6280371 L0,36.9479273 L0,25.5999166 L9.6396775,19.9350677 L19.2824072,25.5999166 L9.6396775,31.276974 Z M52.1233163,17.1192575 L42.483639,11.4107923 L32.8409091,17.1192575 L32.8409091,5.70846523 L42.483639,0 L52.1233163,5.70846523 L52.1233163,17.1192575 Z M52.1233163,17.1192575 L42.483639,11.4107923 L32.8409091,17.1192575 L32.8409091,5.70846523 L42.483639,0 L52.1233163,5.70846523 L52.1233163,17.1192575 Z M52.2020202,36.5041927 L42.5429293,42.3674479 L32.8838383,36.5041927 L32.8409091,25.2526493 L42.483639,19.544184 L52.1233163,25.2526493 L52.2020202,36.5041927 Z M52.2020202,95.1367448 L42.5429293,101 L32.8838383,95.1367448 L32.8409091,83.8852014 L42.483639,78.1767362 L52.1233163,83.8852014 L52.2020202,95.1367448 Z M65.7175927,25.5999166 L75.35727,19.9350677 L85,25.5999166 L85,36.9540318 L75.35727,42.6280371 L75.35727,31.273922 L65.7175927,25.6029686 L65.7175927,25.5999166 Z M68.4540557,35.1922401 L68.4722221,46.5936502 L52.0617018,56.3549007 L52.0617018,75.944847 L42.5429293,70.3156311 L32.9352707,75.9417813 L32.9352707,56.3549007 L16.5277779,46.5936502 L16.5277779,35.1891744 L26.0925076,29.490002 L42.4727502,39.2635152 L58.8953815,29.490002 L68.4570833,35.1922401 L68.4540557,35.1922401 Z" id="path-1"></path>
            </g>
        </g>
    </g>
</svg>