<?xml version="1.0" encoding="UTF-8"?>
<svg width="219px" height="47px" viewBox="0 0 219 47" version="1.1" xmlns="http://www.w3.org/2000/svg" xmlns:xlink="http://www.w3.org/1999/xlink">
    <!-- Generator: Sketch 55.2 (78181) - https://sketchapp.com -->
    <title>LOGO/THORChain-white</title>
    <desc>Created with Sketch.</desc>
    <defs>
        <linearGradient x1="0%" y1="50%" x2="100%" y2="50%" id="linearGradient-1">
            <stop stop-color="#00CCFF" offset="0%"></stop>
            <stop stop-color="#33FF99" offset="100%"></stop>
        </linearGradient>
    </defs>
    <g id="Symbols" stroke="none" stroke-width="1" fill="none" fill-rule="evenodd">
        <g id="Header/Logged-In/Payment-screens" transform="translate(-45.000000, -20.000000)">
            <g id="LOGO/THORChain-White" transform="translate(42.000000, 19.000000)">
                <g id="Group-3" transform="translate(3.328358, 1.655172)">
                    <g id="Thorchain_logo_white_text">
                        <g id="Shape">
                            <path d="M0,45.9209622 L32.7016124,32.4197251 L22.356287,22.1305842 L0,45.9209622 Z M12.0109615,11.8556701 L22.356287,22.1305842 L40.8363018,0 L12.0109615,11.8556701 Z" fill="url(#linearGradient-1)" fill-rule="nonzero"></path>
                            <polygon fill="#FFFFFF" fill-rule="nonzero" points="56.8783284 16.8556014 51.7588757 16.8556014 51.7588757 14.2268041 64.9807692 14.2268041 64.9807692 16.8603436 59.8774408 16.8603436 59.8774408 31.7194502 56.8783284 31.7194502"></polygon>
                            <polygon fill="#FFFFFF" fill-rule="nonzero" points="71.3901627 14.2268041 74.3650888 14.2268041 74.3650888 21.7923024 81.8870562 21.7923024 81.8870562 14.2268041 84.8861686 14.2268041 84.8861686 31.7257732 81.8870562 31.7257732 81.8870562 24.4226804 74.3650888 24.4226804 74.3650888 31.7257732 71.3901627 31.7257732"></polygon>
                            <path d="M95.189571,31.1883162 C94.1737426,30.7351661 93.4078402,29.8762887 92.8918639,28.6116838 C92.3758876,27.347079 92.1178994,25.4860023 92.1178994,23.0284536 C92.1178994,20.5782818 92.3796499,18.7050859 92.9031509,17.408866 C93.4266519,16.112646 94.196854,15.2284765 95.2137574,14.7563574 C96.2295858,14.2905613 97.5920858,14.0571363 99.3012574,14.0560789 C101.010429,14.0550286 102.384753,14.2884536 103.424231,14.7563574 C104.447584,15.2232073 105.217786,16.1005269 105.734837,17.3883162 C106.251889,18.6761054 106.509877,20.5535166 106.508805,23.0205498 C106.508805,25.4707216 106.246514,27.3317984 105.721938,28.6037801 C105.197362,29.8757617 104.43146,30.7372738 103.424231,31.1883162 C102.417002,31.6383047 101.042678,31.8638259 99.3012574,31.8648834 C97.5598373,31.8659336 96.1892751,31.6404124 95.189571,31.1883162 Z M101.852115,28.7571134 C102.441188,28.4409622 102.864719,27.8444903 103.122707,26.9676976 C103.380695,26.0909049 103.509689,24.7736082 103.509689,23.0158076 C103.509689,21.1979381 103.376395,19.838488 103.109808,18.937457 C102.84322,18.0364261 102.420227,17.4352119 101.840828,17.1338144 C101.260355,16.8355785 100.413831,16.6859336 99.3012574,16.6848797 C98.220932,16.6848797 97.3905325,16.83874 96.8100592,17.1464605 C96.2295858,17.454181 95.8022929,18.0548683 95.5281805,18.9485223 C95.254068,19.8411226 95.1170118,21.1968843 95.1170118,23.0158076 C95.1170118,24.7862543 95.2417061,26.103551 95.4910947,26.9676976 C95.7404832,27.8318442 96.1586391,28.4283162 96.7455621,28.7571134 C97.3260355,29.0732646 98.1806213,29.2313402 99.3093195,29.2313402 C100.416519,29.2313402 101.264117,29.0732646 101.852115,28.7571134 L101.852115,28.7571134 Z" fill="#FFFFFF" fill-rule="nonzero"></path>
                            <path d="M113.740533,14.2268041 L120.99645,14.2268041 C122.51213,14.2268041 123.713388,14.6183047 124.600222,15.4013058 C125.487056,16.184307 125.930473,17.6017182 125.930473,19.6535395 C125.930473,21.2026804 125.652061,22.332394 125.095237,23.0426804 C124.539617,23.7545801 123.77661,24.2843138 122.907175,24.5617869 L126.341642,31.7210309 L123.318343,31.7210309 L120.222485,24.9885911 C119.238905,24.9885911 118.069896,24.9722566 116.715459,24.9395876 L116.715459,31.7210309 L113.740533,31.7210309 L113.740533,14.2268041 Z M120.488536,22.6443299 C121.2625,22.6443299 121.86286,22.4272394 122.289615,21.9930584 C122.716371,21.5588774 122.931361,20.7806186 122.934586,19.6582818 C122.934586,18.5833677 122.719596,17.8456816 122.289615,17.4452234 C121.859635,17.0447652 121.259275,16.8471707 120.488536,16.8524399 L116.715459,16.8524399 L116.715459,22.6364261 L120.488536,22.6443299 Z" fill="#FFFFFF" fill-rule="nonzero"></path>
                            <path d="M135.411538,31.1646048 C134.50858,30.6977549 133.818999,29.8162199 133.342796,28.52 C132.866593,27.2237801 132.629029,25.3511111 132.6301,22.9019931 C132.6301,20.5761741 132.871967,18.7698969 133.355695,17.4831615 C133.839423,16.1964261 134.548891,15.303299 135.484098,14.8037801 C136.417155,14.305315 137.626474,14.0560825 139.112056,14.0560825 C140.087794,14.0570102 141.061969,14.132589 142.02571,14.2821306 C142.871576,14.4048503 143.708137,14.582818 144.529808,14.8148454 L144.529808,17.0721649 C144.04608,16.9783734 143.356499,16.8919588 142.461065,16.812921 C141.565631,16.7338832 140.651923,16.6943643 139.719941,16.6943643 C138.65574,16.6943643 137.837165,16.8561283 137.264216,17.1796564 C136.691267,17.5031844 136.276336,18.1080871 136.019423,18.9943643 C135.761435,19.8795876 135.632441,21.1968843 135.632441,22.9462543 C135.632441,24.6956243 135.753373,26.0155556 135.995237,26.9060481 C136.237101,27.7933792 136.640207,28.4019702 137.204556,28.7318213 C137.768905,29.0616724 138.599305,29.2276518 139.695754,29.2297595 C141.312179,29.2429722 142.927836,29.1558564 144.533033,28.9689347 L144.533033,31.221512 C143.065725,31.643047 141.235621,31.8569759 139.042722,31.8633025 C137.524892,31.8643528 136.314497,31.6314548 135.411538,31.1646048 Z" fill="#FFFFFF" fill-rule="nonzero"></path>
                            <polygon fill="#FFFFFF" fill-rule="nonzero" points="151.568047 14.2268041 154.542973 14.2268041 154.542973 21.7923024 162.064941 21.7923024 162.064941 14.2268041 165.064053 14.2268041 165.064053 31.7257732 162.064941 31.7257732 162.064941 24.4226804 154.542973 24.4226804 154.542973 31.7257732 151.568047 31.7257732"></polygon>
                            <path d="M177.447485,14.2268041 L181.220562,14.2268041 L187.025296,31.7257732 L183.905251,31.7257732 L182.526627,27.5715464 L176.076923,27.5715464 L174.722485,31.7210309 L171.658876,31.7210309 L177.447485,14.2268041 Z M181.801036,24.9443299 L179.285651,16.7417869 L176.770266,24.9443299 L181.801036,24.9443299 Z" fill="#FFFFFF" fill-rule="nonzero"></path>
                            <polygon fill="#FFFFFF" fill-rule="nonzero" points="193.579808 14.2268041 196.554734 14.2268041 196.554734 31.7257732 193.579808 31.7257732"></polygon>
                            <polygon fill="#FFFFFF" fill-rule="nonzero" points="204.437885 14.2268041 206.832337 14.2268041 214.958964 26.7226804 214.958964 14.2268041 217.958077 14.2268041 217.958077 31.7257732 215.563624 31.7257732 207.436997 19.2378007 207.436997 31.7257732 204.437885 31.7257732"></polygon>
                        </g>
                    </g>
                </g>
            </g>
        </g>
    </g>
</svg>